<svg xmlns="http://www.w3.org/2000/svg" xmlns:xlink="http://www.w3.org/1999/xlink" width="1220" height="221" viewBox="0 0 1220 221">
  <defs>
    <linearGradient id="linear-gradient" x1="0.5" y1="1" x2="0.5" gradientUnits="objectBoundingBox">
      <stop offset="0" stop-color="#00151f"/>
      <stop offset="1" stop-opacity="0"/>
    </linearGradient>
  </defs>
  <g id="banner-bg" transform="translate(-120 -604)">
    <path id="Прямоугольник_599" data-name="Прямоугольник 599" d="M0,0H1220a0,0,0,0,1,0,0V164a10,10,0,0,1-10,10H10A10,10,0,0,1,0,164V0A0,0,0,0,1,0,0Z" transform="translate(120 651)" opacity="0.4" fill="url(#linear-gradient)"/>
    <path id="Прямоугольник_375" data-name="Прямоугольник 375" d="M0,0H1220a0,0,0,0,1,0,0V211a10,10,0,0,1-10,10H10A10,10,0,0,1,0,211V0A0,0,0,0,1,0,0Z" transform="translate(120 604)" opacity="0.499" fill="url(#linear-gradient)"/>
  </g>
</svg>
