<svg xmlns="http://www.w3.org/2000/svg" width="150.909" height="51.596" viewBox="0 0 150.909 51.596">
  <g id="logo-landing" transform="translate(-6750 138.852)">
    <path id="Контур_1" data-name="Контур 1" d="M171.382,90.913,165.526,81.1a25.984,25.984,0,0,1-6.726.712l5.144,9.1Z" transform="translate(6695.262 -199.535)" fill="#e56606" fill-rule="evenodd"/>
    <path id="Контур_2" data-name="Контур 2" d="M48.983,70.415c0-5.3-3.324-9.417-9.575-9.417H33.868V79.832h5.539c6.014,0,9.575-4.273,9.575-9.417M27.3,85.529V55.3H39.408c9.575,0,16.3,6.014,16.3,15.115S49.062,85.45,39.408,85.45H27.3Z" transform="translate(6722.7 -194.152)" fill="#333" fill-rule="evenodd"/>
    <path id="Контур_3" data-name="Контур 3" d="M70.2,85.529V55.3H91.883V61H76.689v6.331H91.566v5.7H76.689v6.806H91.883v5.7Z" transform="translate(6713.749 -194.152)" fill="#333" fill-rule="evenodd"/>
    <path id="Контур_4" data-name="Контур 4" d="M123.4,85.529l-9.259-12.108-2.374,2.849v9.259H105.2V55.3h6.568V68.832L122.61,55.3H130.6L118.415,69.465l13.057,16.064Z" transform="translate(6706.445 -194.152)" fill="#333" fill-rule="evenodd"/>
    <path id="Контур_5" data-name="Контур 5" d="M193.706,61.81l-4.748,12.978h9.575Zm8.467,23.74-1.9-5.144H187.138l-1.9,5.144H177.8L189.67,55.4h8.072l11.87,30.15Z" transform="translate(6691.297 -194.173)" fill="#333" fill-rule="evenodd"/>
    <path id="Контур_6" data-name="Контур 6" d="M149.889,69.148V61h6.964c2.611,0,4.511,1.5,4.511,4.036,0,2.453-1.9,4.036-4.511,4.036h-6.964Zm18.122-4.115c0-5.3-3.64-9.734-10.287-9.734H143.4V85.45h6.489V74.767h7.834c6.568,0,10.287-4.432,10.287-9.734" transform="translate(6698.475 -194.152)" fill="#333" fill-rule="evenodd"/>
    <g id="Сгруппировать_1" data-name="Сгруппировать 1" transform="translate(6750 -99.76)">
      <path id="Контур_7" data-name="Контур 7" d="M27.3,110.872a5.951,5.951,0,0,1,6.014-6.172,5.434,5.434,0,0,1,4.352,2.137l-.87.554a4.422,4.422,0,0,0-3.482-1.741,5.229,5.229,0,0,0,0,10.446,4.306,4.306,0,0,0,3.482-1.741l.87.554a5.434,5.434,0,0,1-4.352,2.137,5.905,5.905,0,0,1-6.014-6.172" transform="translate(-27.3 -104.7)" fill="#333" fill-rule="evenodd"/>
      <path id="Контур_8" data-name="Контур 8" d="M54.825,110.872c0-3.007-1.9-5.223-4.748-5.223-2.928,0-4.748,2.216-4.748,5.223s1.82,5.223,4.748,5.223c2.928.079,4.748-2.216,4.748-5.223m-10.525,0c0-3.482,2.295-6.172,5.777-6.172s5.777,2.691,5.777,6.172-2.295,6.172-5.777,6.172-5.777-2.611-5.777-6.172" transform="translate(-30.847 -104.7)" fill="#333" fill-rule="evenodd"/>
      <path id="Контур_9" data-name="Контур 9" d="M73.067,116.949,65.55,106.662v10.287H64.6V105h1.029l7.439,10.129V105H74.1v11.949Z" transform="translate(-35.083 -104.763)" fill="#333" fill-rule="evenodd"/>
      <path id="Контур_10" data-name="Контур 10" d="M81.8,115.246l.633-.791a5.048,5.048,0,0,0,3.719,1.741c2.453,0,3.165-1.345,3.165-2.374,0-3.482-7.2-1.662-7.2-5.856,0-1.978,1.741-3.165,3.957-3.165a5.168,5.168,0,0,1,4.036,1.662l-.712.791a4.284,4.284,0,0,0-3.4-1.5c-1.583,0-2.77.95-2.77,2.216,0,3.086,7.122,1.345,7.122,5.856,0,1.5-1.029,3.4-4.273,3.4a6.23,6.23,0,0,1-4.273-1.978" transform="translate(-38.672 -104.721)" fill="#333" fill-rule="evenodd"/>
      <path id="Контур_11" data-name="Контур 11" d="M100.857,116.949v-11H96.9V105h8.863v.95h-3.878v11Z" transform="translate(-41.823 -104.763)" fill="#333" fill-rule="evenodd"/>
      <path id="Контур_12" data-name="Контур 12" d="M119.964,108.482a2.5,2.5,0,0,0-2.691-2.532H113.95v5.144h3.324a2.514,2.514,0,0,0,2.691-2.611m0,8.467-3.324-4.906h-2.611v4.906H113V105h4.432a3.408,3.408,0,0,1,3.64,3.482,3.219,3.219,0,0,1-3.324,3.4l3.482,4.985h-1.266Z" transform="translate(-45.182 -104.763)" fill="#333" fill-rule="evenodd"/>
      <path id="Контур_13" data-name="Контур 13" d="M128.6,112.359V105h1.029v7.359c0,2.453,1.266,3.878,3.64,3.878s3.64-1.5,3.64-3.878V105h1.029v7.359c0,2.928-1.583,4.827-4.669,4.827-3.086-.079-4.669-1.9-4.669-4.827" transform="translate(-48.437 -104.763)" fill="#333" fill-rule="evenodd"/>
      <path id="Контур_14" data-name="Контур 14" d="M145.8,110.872a5.951,5.951,0,0,1,6.014-6.172,5.434,5.434,0,0,1,4.352,2.137l-.87.554a4.422,4.422,0,0,0-3.482-1.741,5.229,5.229,0,0,0,0,10.446,4.306,4.306,0,0,0,3.482-1.741l.87.554a5.434,5.434,0,0,1-4.352,2.137,5.905,5.905,0,0,1-6.014-6.172" transform="translate(-52.026 -104.7)" fill="#333" fill-rule="evenodd"/>
      <path id="Контур_15" data-name="Контур 15" d="M166.778,116.949v-11H162.9V105h8.863v.95h-3.957v11Z" transform="translate(-55.594 -104.763)" fill="#333" fill-rule="evenodd"/>
      <rect id="Прямоугольник_1" data-name="Прямоугольник 1" width="1.029" height="11.949" transform="translate(119.967 0.237)" fill="#333"/>
      <path id="Контур_16" data-name="Контур 16" d="M196.225,110.872c0-3.007-1.9-5.223-4.748-5.223-2.928,0-4.748,2.216-4.748,5.223s1.82,5.223,4.748,5.223c2.928.079,4.748-2.216,4.748-5.223m-10.525,0c0-3.482,2.295-6.172,5.777-6.172s5.777,2.691,5.777,6.172-2.295,6.172-5.777,6.172-5.777-2.611-5.777-6.172" transform="translate(-60.351 -104.7)" fill="#333" fill-rule="evenodd"/>
      <path id="Контур_17" data-name="Контур 17" d="M214.447,116.949l-7.518-10.287v10.287H205.9V105h1.029l7.518,10.129V105h1.029v11.949Z" transform="translate(-64.566 -104.763)" fill="#333" fill-rule="evenodd"/>
    </g>
  </g>
</svg>
